<?xml version="1.0" encoding="iso-8859-1"?>
<!-- Generator: Adobe Illustrator 19.0.0, SVG Export Plug-In . SVG Version: 6.00 Build 0)  -->
<svg xmlns="http://www.w3.org/2000/svg" xmlns:xlink="http://www.w3.org/1999/xlink" version="1.1" id="Capa_1" x="0px" y="0px" viewBox="0 0 511.999 511.999" style="enable-background:new 0 0 511.999 511.999;" xml:space="preserve" width="512px" height="512px">
<g>
	<g>
		<path d="M256,102.714c-79.362,0-143.926,64.566-143.926,143.927c0,25.077,6.55,49.771,18.941,71.414    c12.014,20.981,29.263,38.75,49.887,51.387c15.833,9.701,19.58,18.938,20.792,32.496v68.966c0,5.521,4.475,9.995,9.995,9.995    h2.535v21.104c0,5.521,4.476,9.995,9.995,9.995h63.556c5.52,0,9.995-4.475,9.995-9.995v-21.104h2.537    c5.52,0,9.995-4.475,9.995-9.995v-68.965c1.211-13.558,4.959-22.796,20.792-32.497c20.624-12.637,37.875-30.405,49.886-51.387    c12.393-21.643,18.942-46.337,18.942-71.414C399.925,167.28,335.36,102.714,256,102.714z M277.781,492.008h-43.565v-11.109h43.565    V492.008z M290.314,426.2h-22.333c-5.521,0-9.995,4.475-9.995,9.995s4.476,9.995,9.995,9.995h22.333v14.718h-2.537H224.22h-2.535    v-49.432h68.628V426.2z M320.65,352.396c-16.787,10.285-25.638,21.998-29.035,39.086l-35.62-0.011l-35.615,0.011    c-3.393-17.087-12.245-28.801-29.033-39.086c-37.121-22.745-59.283-62.279-59.283-105.754    c0-68.339,55.597-123.936,123.935-123.936c68.337,0,123.934,55.597,123.934,123.936    C379.933,290.116,357.771,329.65,320.65,352.396z" fill="#FFFFFF"/>
	</g>
</g>
<g>
	<g>
		<path d="M307.559,147.155l-1.019-0.522c-4.925-2.499-10.938-0.534-13.437,4.389c-2.498,4.922-0.533,10.937,4.39,13.436    l0.911,0.467c1.464,0.755,3.028,1.112,4.57,1.112c3.622,0,7.119-1.976,8.893-5.419    C314.395,155.711,312.468,149.683,307.559,147.155z" fill="#FFFFFF"/>
	</g>
</g>
<g>
	<g>
		<path d="M334.889,167.092c-3.919-3.886-10.248-3.862-14.137,0.059c-3.887,3.919-3.86,10.248,0.059,14.136    c17.555,17.409,27.223,40.619,27.223,65.354c0,9.312-1.392,18.515-4.138,27.351c-1.638,5.272,1.308,10.873,6.58,12.511    c0.987,0.307,1.986,0.453,2.969,0.453c4.263,0,8.211-2.748,9.543-7.032c3.344-10.759,5.038-21.957,5.038-33.283    C368.025,216.534,356.258,188.284,334.889,167.092z" fill="#FFFFFF"/>
	</g>
</g>
<g>
	<g>
		<path d="M256,0c-5.521,0-9.995,4.475-9.995,9.995v69.967c0,5.521,4.475,9.996,9.995,9.996c5.52,0,9.995-4.475,9.995-9.996V9.995    C265.995,4.475,261.52,0,256,0z" fill="#FFFFFF"/>
	</g>
</g>
<g>
	<g>
		<path d="M89.314,236.652H19.347c-5.521,0-9.995,4.475-9.995,9.995s4.475,9.995,9.995,9.995h69.967    c5.521,0,9.995-4.475,9.995-9.995S94.834,236.652,89.314,236.652z" fill="#FFFFFF"/>
	</g>
</g>
<g>
	<g>
		<path d="M492.652,236.652h-69.967c-5.52,0-9.996,4.475-9.996,9.995s4.476,9.995,9.996,9.995h69.967    c5.52,0,9.995-4.475,9.995-9.995S498.172,236.652,492.652,236.652z" fill="#FFFFFF"/>
	</g>
</g>
<g>
	<g>
		<path d="M181.313,97.296l-34.984-60.593c-2.76-4.781-8.873-6.419-13.654-3.658c-4.781,2.76-6.419,8.873-3.658,13.654L164,107.292    c1.852,3.208,5.211,4.999,8.666,4.999c1.695,0,3.414-0.432,4.988-1.34C182.435,108.19,184.073,102.077,181.313,97.296z" fill="#FFFFFF"/>
	</g>
</g>
<g>
	<g>
		<path d="M382.982,446.599l-34.983-60.595c-2.761-4.78-8.869-6.419-13.654-3.658c-4.781,2.76-6.419,8.873-3.658,13.654    l34.983,60.595c1.852,3.207,5.211,4.999,8.666,4.999c1.695,0,3.413-0.432,4.988-1.34    C384.104,457.494,385.742,451.38,382.982,446.599z" fill="#FFFFFF"/>
	</g>
</g>
<g>
	<g>
		<path d="M116.643,154.651l-60.595-34.983c-4.782-2.762-10.894-1.122-13.654,3.658c-2.761,4.781-1.122,10.894,3.658,13.654    l60.595,34.983c1.574,0.91,3.292,1.34,4.988,1.34c3.454,0,6.815-1.792,8.666-4.999    C123.062,163.524,121.424,157.411,116.643,154.651z" fill="#FFFFFF"/>
	</g>
</g>
<g>
	<g>
		<path d="M465.946,356.318l-60.595-34.984c-4.783-2.763-10.894-1.121-13.654,3.658c-2.761,4.781-1.122,10.894,3.658,13.654    l60.595,34.983c1.574,0.909,3.292,1.34,4.988,1.34c3.454,0,6.815-1.792,8.666-4.999    C472.365,365.191,470.727,359.078,465.946,356.318z" fill="#FFFFFF"/>
	</g>
</g>
<g>
	<g>
		<path d="M469.604,123.326c-2.76-4.78-8.87-6.418-13.654-3.658l-60.595,34.983c-4.781,2.76-6.419,8.873-3.658,13.654    c1.852,3.207,5.211,4.999,8.666,4.999c1.695,0,3.413-0.432,4.988-1.34l60.595-34.983    C470.726,134.22,472.364,128.107,469.604,123.326z" fill="#FFFFFF"/>
	</g>
</g>
<g>
	<g>
		<path d="M120.301,324.993c-2.761-4.78-8.87-6.419-13.654-3.659l-60.595,34.984c-4.781,2.76-6.419,8.873-3.658,13.654    c1.852,3.207,5.211,4.999,8.666,4.999c1.695,0,3.413-0.432,4.988-1.34l60.595-34.983    C121.424,335.887,123.062,329.774,120.301,324.993z" fill="#FFFFFF"/>
	</g>
</g>
<g>
	<g>
		<path d="M177.654,382.346c-4.782-2.761-10.895-1.122-13.654,3.658l-34.984,60.595c-2.761,4.781-1.122,10.894,3.658,13.654    c1.574,0.909,3.293,1.34,4.988,1.34c3.454,0,6.815-1.793,8.666-4.999L181.313,396    C184.073,391.219,182.435,385.106,177.654,382.346z" fill="#FFFFFF"/>
	</g>
</g>
<g>
	<g>
		<path d="M379.323,33.045c-4.783-2.761-10.894-1.122-13.654,3.658l-34.983,60.593c-2.761,4.781-1.123,10.894,3.658,13.654    c1.574,0.909,3.292,1.34,4.988,1.34c3.454,0,6.815-1.792,8.666-4.999l34.983-60.593C385.742,41.918,384.104,35.805,379.323,33.045    z" fill="#FFFFFF"/>
	</g>
</g>
<g>
	<g>
		<path d="M243.562,426.2h-0.308c-5.521,0-9.995,4.475-9.995,9.995s4.475,9.995,9.995,9.995h0.308c5.521,0,9.995-4.475,9.995-9.995    S249.082,426.2,243.562,426.2z" fill="#FFFFFF"/>
	</g>
</g>
<g>
	<g>
		<path d="M265.996,247.515V216.12c1.616,1.215,3.028,2.733,4.143,4.516c2.93,4.68,9.099,6.098,13.776,3.169    c4.679-2.93,6.097-9.098,3.168-13.777c-4.926-7.867-12.446-13.407-21.088-15.837v-12.872c0-5.521-4.476-9.995-9.995-9.995    c-5.521,0-9.995,4.475-9.995,9.995v12.882c-15.367,4.362-26.659,18.511-26.659,35.255c0,16.745,11.292,30.894,26.659,35.257    v31.395c-1.617-1.215-3.028-2.734-4.144-4.517c-2.929-4.679-9.097-6.097-13.776-3.169c-4.679,2.93-6.097,9.097-3.168,13.776    c4.926,7.868,12.447,13.408,21.089,15.838v12.87c0,5.521,4.476,9.995,9.995,9.995c5.52,0,9.995-4.475,9.995-9.995v-12.88    c15.366-4.363,26.658-18.512,26.658-35.256C292.654,266.026,281.363,251.878,265.996,247.515z M246.005,242.756    c-4.039-3.044-6.668-7.865-6.668-13.301c0-5.435,2.629-10.255,6.668-13.298V242.756z M265.995,296.07v-26.598    c4.039,3.044,6.667,7.863,6.667,13.298C272.662,288.206,270.035,293.027,265.995,296.07z" fill="#FFFFFF"/>
	</g>
</g>
<g>
</g>
<g>
</g>
<g>
</g>
<g>
</g>
<g>
</g>
<g>
</g>
<g>
</g>
<g>
</g>
<g>
</g>
<g>
</g>
<g>
</g>
<g>
</g>
<g>
</g>
<g>
</g>
<g>
</g>
</svg>
