<?xml version="1.0" encoding="iso-8859-1"?>
<!-- Generator: Adobe Illustrator 19.0.0, SVG Export Plug-In . SVG Version: 6.00 Build 0)  -->
<svg xmlns="http://www.w3.org/2000/svg" xmlns:xlink="http://www.w3.org/1999/xlink" version="1.1" id="Capa_1" x="0px" y="0px" viewBox="0 0 512 512" style="enable-background:new 0 0 512 512;" xml:space="preserve" width="512px" height="512px">
<g>
	<g>
		<path d="M344.058,129.741c-5.521,0-9.996,4.475-9.996,9.996v0.602c0,5.521,4.475,9.996,9.996,9.996    c5.521,0,9.996-4.475,9.996-9.996v-0.602C354.054,134.215,349.579,129.741,344.058,129.741z" fill="#FFFFFF"/>
	</g>
</g>
<g>
	<g>
		<path d="M474.219,208.517h-32.743c-4.811-23.142-14.032-45.403-27.01-65.209l23.151-23.152c3.902-3.902,3.902-10.232,0-14.137    l-40.494-40.493c-0.891-0.891-1.934-1.587-3.065-2.083V34.189C394.059,14.058,383.396,0,368.127,0h-48.133    c-13.478,0-23.362,10.961-25.494,27.382c-0.745-4.785-4.871-8.451-9.865-8.451h-57.27c-5.521,0-9.996,4.477-9.996,9.996v32.713    c-23.134,4.814-45.398,14.043-65.212,27.032l-23.145-23.144c-3.903-3.902-10.233-3.902-14.137,0L74.379,106.02    c-1.874,1.876-2.928,4.418-2.928,7.069c0,2.651,1.054,5.193,2.928,7.067l23.151,23.15c-12.984,19.814-22.208,42.076-27.018,65.211    H37.781c-5.521,0-9.996,4.474-9.996,9.996v57.267c0,5.521,4.475,9.996,9.996,9.996h32.746    c4.819,23.121,14.049,45.37,27.036,65.174l-23.184,23.181c-1.874,1.874-2.928,4.418-2.928,7.069c0,2.651,1.054,5.193,2.928,7.067    l40.495,40.495c3.904,3.904,10.232,3.904,14.136,0l23.196-23.193c19.802,12.973,42.049,22.192,65.162,27.005v32.787    c0,5.521,4.475,9.996,9.996,9.996h57.27c5.52,0,9.996-4.475,9.996-9.996v-32.783c1.153-0.239,2.296-0.514,3.444-0.775    l37.032,74.644c1.687,3.401,5.157,5.553,8.954,5.553s7.267-2.151,8.954-5.553l37.092-74.758c2.632-0.014,5.155-1.065,7.018-2.927    l40.494-40.494c3.902-3.902,3.902-10.232,0-14.136l-23.182-23.181c12.977-19.795,22.204-42.044,27.025-65.174h32.758    c5.52,0,9.996-4.475,9.996-9.996v-57.267C484.215,212.991,479.738,208.517,474.219,208.517z M294.066,133.401    c-12.194-4.094-24.94-6.173-38.065-6.173c-66.102,0-119.879,53.779-119.879,119.878c0,66.102,53.778,119.88,119.879,119.88    c13.123,0,25.867-2.08,38.065-6.177v51.417c-3.651,0.837-7.33,1.569-11.012,2.16c-4.849,0.777-8.414,4.959-8.414,9.869v31.112    H237.36v-31.112c0-4.908-3.565-9.092-8.414-9.869c-25.85-4.146-50.774-14.473-72.074-29.865    c-3.977-2.876-9.452-2.438-12.923,1.033l-22.009,22.007l-26.358-26.358l21.998-21.997c3.471-3.472,3.908-8.949,1.032-12.927    c-15.407-21.302-25.745-46.227-29.9-72.083c-0.779-4.846-4.961-8.411-9.869-8.411H47.777v-37.275h31.057    c4.91,0,9.093-3.567,9.87-8.414c4.144-25.872,14.475-50.811,29.878-72.118c2.875-3.978,2.437-9.455-1.034-12.925l-21.964-21.964    l26.358-26.358l21.96,21.96c3.472,3.472,8.947,3.908,12.926,1.033c21.31-15.408,46.249-25.745,72.12-29.894    c4.848-0.779,8.414-4.961,8.414-9.871V38.922h37.278v31.036c0,4.91,3.565,9.092,8.413,9.871c3.687,0.591,7.367,1.323,11.013,2.159    V133.401z M294.065,154.729v184.747c-12.052,4.987-24.827,7.517-38.065,7.517c-55.078,0-99.887-44.809-99.887-99.888    c0-55.077,44.808-99.886,99.887-99.886C269.243,147.218,282.018,149.745,294.065,154.729z M314.055,34.189    c0.001-7.829,2.665-14.197,5.939-14.197h48.133c3.275,0,5.94,6.368,5.94,14.197v27.814h-60.011V34.189z M344.06,479.513    l-21.013-42.355c2.246-0.326,4.543-0.852,6.877-1.595c4.858-1.547,9.912-4.129,14.134-7.493c4.223,3.365,9.279,5.947,14.138,7.495    c2.334,0.744,4.632,1.268,6.878,1.594L344.06,479.513z M374.066,415.691c0,0.003,0,0.007,0,0.011v1.138    c-1.872,0.826-4.201,0.797-6.094,0.534c-7.225-1.006-12.842-5.508-13.92-7.431l0.002-240.931c0.001-5.519-4.474-9.996-9.995-9.996    c-5.52,0-9.996,4.476-9.996,9.996l-0.002,240.923c-1.059,1.912-6.677,6.432-13.919,7.438c-1.89,0.263-4.216,0.292-6.087-0.533    V121.994l60.011,0.002V415.691z M374.067,102.005l-60.011-0.002V81.995h60.011V102.005z M394.058,90.733l22.355,22.355    l-21.964,21.966c-0.138,0.138-0.263,0.283-0.391,0.428V90.733z M416.413,381.2l-22.354,22.355v-44.743    c0.118,0.132,0.232,0.266,0.357,0.392L416.413,381.2z M433.143,265.784c-4.908,0-9.09,3.563-9.869,8.411    c-4.097,25.486-14.199,50.045-29.216,71.12V148.893c15.032,21.096,25.138,45.685,29.226,71.2c0.777,4.848,4.96,8.414,9.87,8.414    h31.068v37.276H433.143z" fill="#FFFFFF"/>
	</g>
</g>
<g>
	<g>
		<path d="M138.339,304.669l-0.154-0.312c-2.47-4.939-8.454-6.899-13.39-4.428c-4.937,2.468-6.918,8.516-4.449,13.453l0.112,0.227    c1.751,3.503,5.281,5.527,8.948,5.527c1.501,0,3.027-0.34,4.462-1.057C138.806,315.61,140.807,309.606,138.339,304.669z" fill="#FFFFFF"/>
	</g>
</g>
<g>
	<g>
		<path d="M129.811,183.518c-5.094-2.136-10.949,0.268-13.082,5.359c-7.738,18.48-11.661,38.086-11.661,58.269    c0,14.285,1.998,28.435,5.939,42.053c1.266,4.375,5.261,7.222,9.598,7.222c0.92,0,1.856-0.129,2.783-0.398    c5.304-1.534,8.357-7.077,6.823-12.38c-3.419-11.813-5.151-24.092-5.151-36.497c0-17.518,3.401-34.525,10.11-50.547    C137.302,191.504,134.902,185.65,129.811,183.518z" fill="#FFFFFF"/>
	</g>
</g>
<g>
</g>
<g>
</g>
<g>
</g>
<g>
</g>
<g>
</g>
<g>
</g>
<g>
</g>
<g>
</g>
<g>
</g>
<g>
</g>
<g>
</g>
<g>
</g>
<g>
</g>
<g>
</g>
<g>
</g>
</svg>
