<?xml version="1.0" encoding="iso-8859-1"?>
<!-- Generator: Adobe Illustrator 19.0.0, SVG Export Plug-In . SVG Version: 6.00 Build 0)  -->
<svg xmlns="http://www.w3.org/2000/svg" xmlns:xlink="http://www.w3.org/1999/xlink" version="1.1" id="Capa_1" x="0px" y="0px" viewBox="0 0 512 512" style="enable-background:new 0 0 512 512;" xml:space="preserve" width="512px" height="512px">
<g>
	<g>
		<path d="M328.83,386.845c-1.968-7.304-6.661-13.404-13.203-17.168l-35.143-20.29c-0.248-0.143-0.5-0.274-0.754-0.394    l-34.128-19.705c-4.351-2.577-9.328-3.938-14.456-3.938c-15.592,0.035-28.252,12.747-28.222,28.319l0.002,39.113    c-0.023,0.45-0.034,0.91-0.036,1.404v38.976c-0.32,5.535,0.975,10.992,3.754,15.807c5.049,8.749,14.467,14.184,24.577,14.184    c4.957,0,9.854-1.315,14.163-3.803l70.286-40.578c0.332-0.192,0.651-0.402,0.956-0.629c3.871-2.445,7.108-5.817,9.403-9.807    C329.802,401.782,330.797,394.15,328.83,386.845z M308.695,398.361c-0.741,1.289-1.762,2.313-3.033,3.043    c-0.276,0.159-0.544,0.331-0.802,0.515l-69.478,40.111c-1.29,0.745-2.691,1.123-4.162,1.123c-2.987,0-5.767-1.602-7.256-4.183    c-0.84-1.455-1.221-3.105-1.102-4.772c0.018-0.238,0.026-0.477,0.026-0.716v-39.245c0.001-0.172,0.003-0.343,0.015-0.512    c0.014-0.219,0.021-0.439,0.021-0.659l-0.002-39.418c-0.009-4.566,3.699-8.289,8.278-8.299c1.494,0,2.956,0.4,4.228,1.158    c0.039,0.024,0.079,0.047,0.118,0.07l34.916,20.16c0.248,0.143,0.5,0.274,0.755,0.394l34.421,19.873    c1.923,1.107,3.301,2.898,3.878,5.043C310.096,394.193,309.804,396.434,308.695,398.361z" fill="#FFFFFF"/>
	</g>
</g>
<g>
	<g>
		<path d="M272.024,373.902c-6.757-3.854-12.257-7.02-17.309-9.965c-4.771-2.781-10.895-1.169-13.676,3.603    c-2.781,4.772-1.168,10.894,3.604,13.675c5.107,2.978,10.659,6.174,17.473,10.06c1.563,0.892,3.265,1.315,4.944,1.315    c3.475,0,6.852-1.813,8.696-5.048C278.493,382.745,276.821,376.638,272.024,373.902z" fill="#FFFFFF"/>
	</g>
</g>
<g>
	<g>
		<path d="M292.306,385.457l-0.295-0.169c-4.817-2.702-10.878-0.967-13.579,3.85c-2.702,4.817-0.953,10.932,3.864,13.633    l0.232,0.134c1.551,0.877,3.232,1.293,4.889,1.293c3.482,0,6.861-1.836,8.703-5.093    C298.841,394.297,297.113,388.175,292.306,385.457z" fill="#FFFFFF"/>
	</g>
</g>
<g>
	<g>
		<path d="M502,208.254H94.643l387.94-124.268c5.259-1.685,8.157-7.314,6.473-12.574L468.406,6.95    c-0.81-2.525-2.589-4.627-4.946-5.84c-2.359-1.213-5.102-1.441-7.628-0.632L6.952,144.269c-5.26,1.685-8.157,7.315-6.473,12.574    l0.77,2.405c0.015,0.047,0.03,0.094,0.045,0.141l19.356,60.426v282.184c0,5.523,4.477,10,10,10H502c5.522,0,10-4.477,10-10    V218.253C512,212.731,507.523,208.254,502,208.254z M437.544,228.253l32.139,47.684h-35.018l-32.141-47.684H437.544z     M378.407,228.253l32.141,47.684h-35.021l-32.139-47.684H378.407z M319.269,228.253l32.139,47.684h-35.017l-32.141-47.684H319.269    z M260.132,228.253l32.141,47.684h-35.021l-32.139-47.684H260.132z M200.995,228.253l32.139,47.684h-35.019l-32.139-47.684    H200.995z M141.857,228.253l32.139,47.684h-35.017l-32.141-47.684H141.857z M114.861,275.937H79.84l-32.139-47.684h35.02    L114.861,275.937z M55.72,275.937H40.65v-22.359L55.72,275.937z M452.41,22.575l13.731,42.868L423.519,31.83L452.41,22.575z     M400.551,39.188l45.155,35.609l-33.349,10.683L367.199,49.87L400.551,39.188z M344.23,57.228l45.158,35.609l-33.352,10.684    l-45.155-35.609L344.23,57.228z M287.912,75.269l45.155,35.609l-33.349,10.683l-45.157-35.608L287.912,75.269z M231.593,93.31    l45.157,35.608l-33.35,10.683l-45.156-35.608L231.593,93.31z M175.276,111.35l45.156,35.608l-33.352,10.683l-45.155-35.608    L175.276,111.35z M118.956,129.391l45.155,35.608l-33.35,10.684l-45.156-35.609L118.956,129.391z M62.638,147.432l45.156,35.608    l-33.349,10.683l-45.158-35.607L62.638,147.432z M30.302,184.386l21.172,16.695l-14.352,4.597L30.302,184.386z M492,491.999    H79.316v-40.344c0-5.523-4.478-10-10-10c-5.523,0-10,4.477-10,10v40.344H40.65V295.937H448.75v40.344c0,5.523,4.477,10,10,10    c5.523,0,10-4.477,10-10v-40.344H492V491.999z M492,273.263l-30.337-45.01H492V273.263z" fill="#FFFFFF"/>
	</g>
</g>
<g>
	<g>
		<path d="M69.316,413.53c-5.523,0-10,4.477-10,10v1.169c0,5.523,4.477,10,10,10c5.522,0,10-4.477,10-10v-1.169    C79.316,418.007,74.839,413.53,69.316,413.53z" fill="#FFFFFF"/>
	</g>
</g>
<g>
	<g>
		<path d="M458.751,353.234c-5.523,0-10,4.477-10,10v1.172c0,5.523,4.477,10,10,10c5.523,0,10-4.477,10-10v-1.172    C468.751,357.711,464.273,353.234,458.751,353.234z" fill="#FFFFFF"/>
	</g>
</g>
<g>
</g>
<g>
</g>
<g>
</g>
<g>
</g>
<g>
</g>
<g>
</g>
<g>
</g>
<g>
</g>
<g>
</g>
<g>
</g>
<g>
</g>
<g>
</g>
<g>
</g>
<g>
</g>
<g>
</g>
</svg>
