<?xml version="1.0"?>
<svg xmlns="http://www.w3.org/2000/svg" xmlns:xlink="http://www.w3.org/1999/xlink" viewBox="0 0 64 64" width="512" height="512"><defs><linearGradient id="New_Gradient_Swatch_2" x1="27" y1="2.743" x2="27" y2="64.821" gradientUnits="userSpaceOnUse"><stop offset="0" stop-color="#fc5c7d"/><stop offset="0.129" stop-color="#f35e85"/><stop offset="0.343" stop-color="#d9659b"/><stop offset="0.616" stop-color="#b070bf"/><stop offset="0.934" stop-color="#777ff0"/><stop offset="1" stop-color="#6a82fb"/></linearGradient><linearGradient id="New_Gradient_Swatch_2-2" x1="32" y1="2.743" x2="32" y2="64.821" xlink:href="#New_Gradient_Swatch_2"/><linearGradient id="New_Gradient_Swatch_2-3" x1="44" y1="2.743" x2="44" y2="64.821" xlink:href="#New_Gradient_Swatch_2"/><linearGradient id="New_Gradient_Swatch_2-4" x1="47" y1="2.743" x2="47" y2="64.821" xlink:href="#New_Gradient_Swatch_2"/><linearGradient id="New_Gradient_Swatch_2-5" x1="28" y1="2.743" x2="28" y2="64.821" xlink:href="#New_Gradient_Swatch_2"/><linearGradient id="New_Gradient_Swatch_2-6" x1="24" y1="2.743" x2="24" y2="64.821" xlink:href="#New_Gradient_Swatch_2"/><linearGradient id="New_Gradient_Swatch_2-7" x1="22" y1="2.743" x2="22" y2="64.821" xlink:href="#New_Gradient_Swatch_2"/><linearGradient id="New_Gradient_Swatch_2-8" x1="16" y1="2.743" x2="16" y2="64.821" xlink:href="#New_Gradient_Swatch_2"/><linearGradient id="New_Gradient_Swatch_2-9" x1="36" y1="2.743" x2="36" y2="64.821" xlink:href="#New_Gradient_Swatch_2"/><linearGradient id="New_Gradient_Swatch_2-12" x1="40.5" y1="2.743" x2="40.5" y2="64.821" xlink:href="#New_Gradient_Swatch_2"/><linearGradient id="New_Gradient_Swatch_2-13" x1="36.5" y1="2.743" x2="36.5" y2="64.821" xlink:href="#New_Gradient_Swatch_2"/><linearGradient id="New_Gradient_Swatch_2-14" x1="50" y1="2.743" x2="50" y2="64.821" xlink:href="#New_Gradient_Swatch_2"/></defs><title>manager-Planning-theory- strategy-Business</title><g id="_001GradL" data-name="001GradL"><rect x="26" y="56" width="2" height="2" style="fill:url(#New_Gradient_Swatch_2)"/><path d="M54,8H15V3a1,1,0,0,0-1-1H10A4,4,0,0,0,6,6V39a4,4,0,0,0,4,4h.02a5.315,5.315,0,0,0,2.356,4.119l2.733,1.822A2,2,0,0,1,16,50.605V52H15a1,1,0,0,0-1,1v8a1,1,0,0,0,1,1H31a1,1,0,0,0,1-1V53a1,1,0,0,0-1-1H30V49.232A20.018,20.018,0,0,0,31.839,43H49v5a1,1,0,0,0,1,1h4a4,4,0,0,0,4-4V12A4,4,0,0,0,54,8ZM10,4h3V8H10a2,2,0,0,1,0-4ZM30,60H16V54H30Zm0-19.472a18.03,18.03,0,0,1-1.895,8.025A1,1,0,0,0,28,49v3H18v-1.4a4,4,0,0,0-1.781-3.328l-2.734-1.822a3.336,3.336,0,0,1,.359-5.759L14,39.618V42h2V28a1,1,0,0,1,2,0V38h2V33a1,1,0,0,1,2,0v3h2V35a1,1,0,0,1,2,0v3h2V36a1,1,0,0,1,2,0ZM31.987,41c0-.157.013-.314.013-.472V36a3,3,0,0,0-3-3,2.967,2.967,0,0,0-1.471.4,2.972,2.972,0,0,0-3.645-1.181A2.95,2.95,0,0,0,20,30.184V28a3,3,0,0,0-6,0v9.382l-1.051.525A5.3,5.3,0,0,0,10.279,41H10a2,2,0,0,1-2-2V9.444A3.959,3.959,0,0,0,10,10H54a2,2,0,0,1,2,2V41.556A3.959,3.959,0,0,0,54,41ZM54,47H51V43h3a2,2,0,0,1,0,4Z" style="fill:url(#New_Gradient_Swatch_2-2)"/><polygon points="51 27 49 27 49 36 47 36 47 29 45 29 45 36 43 36 43 31 41 31 41 36 39 36 39 33 37 33 37 36 35 36 35 38 53 38 53 36 51 36 51 27" style="fill:url(#New_Gradient_Swatch_2-3)"/><path d="M47,13a6,6,0,1,0,6,6A6.006,6.006,0,0,0,47,13Zm-1,2.142v3.444l-2.433,2.433A3.947,3.947,0,0,1,43,19,4,4,0,0,1,46,15.142ZM47,23a3.947,3.947,0,0,1-2.019-.567l2.726-2.726A1,1,0,0,0,48,19V15.142A3.992,3.992,0,0,1,47,23Z" style="fill:url(#New_Gradient_Swatch_2-4)"/><rect x="19" y="13" width="18" height="2" style="fill:url(#New_Gradient_Swatch_2-5)"/><rect x="11" y="17" width="26" height="2" style="fill:url(#New_Gradient_Swatch_2-6)"/><rect x="11" y="21" width="22" height="2" style="fill:url(#New_Gradient_Swatch_2-7)"/><rect x="15" y="13" width="2" height="2" style="fill:url(#New_Gradient_Swatch_2-8)"/><rect x="35" y="26" width="2" height="2" style="fill:url(#New_Gradient_Swatch_2-9)"/><rect x="31" y="26" width="2" height="2" style="fill:url(#New_Gradient_Swatch_2-2)"/><rect x="27" y="26" width="2" height="2" style="fill:url(#New_Gradient_Swatch_2-5)"/><rect x="35" y="45" width="11" height="2" style="fill:url(#New_Gradient_Swatch_2-12)"/><rect x="26" y="4" width="21" height="2" style="fill:url(#New_Gradient_Swatch_2-13)"/><rect x="49" y="4" width="2" height="2" style="fill:url(#New_Gradient_Swatch_2-14)"/></g></svg>
